<?xml version="1.0" encoding="UTF-8"?>
<svg xmlns="http://www.w3.org/2000/svg" viewBox="0 0 103.7 91.73">
  <defs>
    <style>
      .cls-1 {
        fill: #ec008c;
        stroke: #ec008c;
        stroke-width: 2px;
      }

      .cls-1, .cls-2 {
        stroke-miterlimit: 10;
      }

      .cls-3 {
        fill: #231f20;
      }

      .cls-2 {
        fill: none;
        stroke: #231f20;
        stroke-width: 3px;
      }

      .cls-4 {
        fill: #fff;
      }

      .cls-5 {
        fill: #f4c0d9;
      }
    </style>
  </defs>
  <g id="Layer_2">
    <path class="cls-3" d="M61.84,20.69c-4.81,4.67-15.73,4.27-20.6-.76-.95-.98-.83-1.26-5.35-11.14-2.94-6.41-3.64-7.75-5.02-8.05-3.33-.71-7.23,5.29-9.31,8.5-1.16,1.79-4.03,6.49-7.78,19.81-1.89,6.73-2.84,10.1-3.18,13.85-.37,4.13-1.04,11.68,2.04,18.89,4.53,10.61,14.9,15.16,19.91,17.36,2.92,1.28,20.8,8.78,39.32,0,4.08-1.94,15.18-7.2,19.91-19.4,3.29-8.48,1.66-17.24,1.02-20.94-.4-2.34-1.45-5.65-3.57-12.26-3.48-10.83-5.53-14.98-7.66-18.38C78.83,3.8,76.27-.29,73.4.02c-2.39.26-3.91,3.45-6.72,9.47-3.62,7.76-2.67,9.09-4.85,11.21Z"/>
  </g>
  <g id="Layer_3">
    <polygon class="cls-5" points="52.02 83.37 8.04 64.87 10.27 91.73 52.02 83.37"/>
    <polyline class="cls-5" points="93.78 91.73 52.02 83.37 96 64.87"/>
  </g>
  <g id="Layer_4">
    <line class="cls-2" x1="88.11" y1="41.4" x2="101.69" y2="34.71"/>
    <line class="cls-2" x1="89.16" y1="49.69" x2="103.53" y2="48.1"/>
    <line class="cls-2" x1="88.02" y1="56.5" x2="101.79" y2="62.38"/>
    <g>
      <path class="cls-4" d="M22.02,37.25h19.88v1.35h-15.12v4.13h13.97v1.33h-13.97v5.63h-4.77v-12.43Z"/>
      <path class="cls-4" d="M86.11,49.28c-1.75.29-5.26.59-9.75.59-10.41,0-18.24-2.21-18.24-6.29s7.83-6.53,19.28-6.53c4.6,0,7.5.33,8.76.55l-1.15,1.31c-1.81-.3-4.38-.52-7.45-.52-8.65,0-14.41,1.86-14.41,5.13,0,3.04,5.2,5,14.19,5,2.9,0,5.86-.2,7.78-.52l.99,1.27Z"/>
    </g>
    <line class="cls-2" x1="15.86" y1="41.75" x2="2.03" y2="35.06"/>
    <line class="cls-2" x1="14.79" y1="50.03" x2=".16" y2="48.44"/>
    <line class="cls-2" x1="15.96" y1="56.85" x2="1.93" y2="62.73"/>
    <polygon class="cls-1" points="50.24 50.93 53.81 50.93 52.02 52.73 50.24 50.93"/>
  </g>
</svg>